<svg xmlns="http://www.w3.org/2000/svg" viewBox="0 0 64 64" width="64" height="64" role="img">
  <path d="M32 8l4 7 5-5 1 8 7-3-2 8 8 1-6 5 6 5-8 2 2 7-7-2-2 7-5-5-4 6-4-6-5 5-2-7-7 2 2-7-8-2 6-5-6-5 8-1-2-8 7 3 1-8 5 5z" fill="#6E5238"/>
  <circle cx="32" cy="33" r="18" fill="#8A6A48"/>
  <ellipse cx="32" cy="40" rx="14" ry="11" fill="#D8BA92"/>
  <circle cx="25" cy="34" r="2.6" fill="#33261A"/>
  <circle cx="39" cy="34" r="2.6" fill="#33261A"/>
  <ellipse cx="32" cy="43" rx="3.2" ry="2.4" fill="#4A3524"/>
  <path d="M32 45.4v2.2M32 47.6c-1.7 1.7-4 1.7-5.2 0M32 47.6c1.7 1.7 4 1.7 5.2 0" stroke="#6B4E34" stroke-width="1.4" stroke-linecap="round" fill="none"/>
  <circle cx="19" cy="43" r="3" fill="#E3A9A9" opacity=".8"/>
  <circle cx="45" cy="43" r="3" fill="#E3A9A9" opacity=".8"/>
</svg>
